<?xml version="1.0" standalone="no"?><!DOCTYPE svg PUBLIC "-//W3C//DTD SVG 1.1//EN" "http://www.w3.org/Graphics/SVG/1.1/DTD/svg11.dtd"><svg t="1582102329496" class="icon" viewBox="0 0 1024 1024" version="1.1" xmlns="http://www.w3.org/2000/svg" p-id="62311" xmlns:xlink="http://www.w3.org/1999/xlink" width="200" height="200"><defs><style type="text/css"></style></defs><path d="M768 0H256C115.2 0 0 115.2 0 256v512c0 140.8 115.2 256 256 256h512c140.8 0 256-115.2 256-256V256c0-140.8-115.2-256-256-256z m-32 819.2c-57.6 0-108.8-51.2-108.8-108.8v-19.2L390.4 576c-19.2 25.6-57.6 44.8-96 44.8-64 0-121.6-51.2-121.6-121.6s51.2-121.6 121.6-121.6c38.4 0 70.4 19.2 96 44.8l256-115.2v-12.8c0-51.2 38.4-89.6 89.6-89.6 51.2 0 89.6 38.4 89.6 89.6 0 51.2-38.4 89.6-89.6 89.6-25.6 0-51.2-12.8-70.4-32l-256 115.2c6.4 19.2 0 32 0 51.2l243.2 115.2c19.2-25.6 51.2-38.4 83.2-38.4 57.6 0 108.8 51.2 108.8 108.8 0 64-44.8 115.2-108.8 115.2z" p-id="62312" fill="#BF5959"></path></svg>