<?xml version="1.0" standalone="no"?><!DOCTYPE svg PUBLIC "-//W3C//DTD SVG 1.1//EN" "http://www.w3.org/Graphics/SVG/1.1/DTD/svg11.dtd"><svg t="1582102203621" class="icon" viewBox="0 0 1024 1024" version="1.1" xmlns="http://www.w3.org/2000/svg" p-id="53894" xmlns:xlink="http://www.w3.org/1999/xlink" width="200" height="200"><defs><style type="text/css"></style></defs><path d="M918.036 181.812h-83.962v40.87c0 52.666-43.853 95.355-97.95 95.355s-97.954-42.69-97.954-95.355v-40.87H386.295v40.87c0 52.666-43.858 95.355-97.95 95.355-54.099 0-97.954-42.69-97.954-95.355v-40.87H106.43c-23.186 0-41.98 18.298-41.98 40.87v681.136c0 22.574 18.793 40.87 41.98 40.87h811.608c23.185 0 41.977-18.296 41.977-40.872V222.682c-0.001-22.573-18.794-40.87-41.98-40.87zM741.47 537.497L494.952 777.482c-9.559 9.307-22.767 15.068-37.352 15.068-14.587 0-27.794-5.76-37.359-15.068L296.986 657.496c-9.56-9.31-15.475-22.166-15.475-36.368 0-28.401 23.656-51.427 52.829-51.427 14.589 0 27.794 5.758 37.354 15.064l85.91 83.633 209.162-203.63c9.559-9.306 22.762-15.064 37.347-15.064 29.179 0 52.826 23.025 52.826 51.427 0 14.2-5.91 27.06-15.469 36.366z" p-id="53895" fill="#ffffff"></path><path d="M736.126 263.546c-23.186 0-41.98-18.296-41.98-40.864V113.7c0-22.572 18.794-40.868 41.98-40.868s41.978 18.296 41.978 40.868v108.982c-0.002 22.567-18.793 40.864-41.978 40.864z m-447.784 0c-23.186 0-41.98-18.296-41.98-40.864V113.7c0-22.572 18.793-40.868 41.98-40.868 23.183 0 41.978 18.296 41.978 40.868v108.982c0 22.567-18.795 40.864-41.978 40.864z" p-id="53896" fill="#ffffff"></path></svg>