<?xml version="1.0" standalone="no"?><!DOCTYPE svg PUBLIC "-//W3C//DTD SVG 1.1//EN" "http://www.w3.org/Graphics/SVG/1.1/DTD/svg11.dtd"><svg t="1582102251473" class="icon" viewBox="0 0 1229 1024" version="1.1" xmlns="http://www.w3.org/2000/svg" p-id="56572" xmlns:xlink="http://www.w3.org/1999/xlink" width="240.0390625" height="200"><defs><style type="text/css"></style></defs><path d="M1075.2 102.4 153.6 102.4C97.28 102.4 51.2 148.48 51.2 204.8l0 614.4c0 56.32 46.08 102.4 102.4 102.4l921.6 0c56.32 0 102.4-46.08 102.4-102.4L1177.6 204.8C1177.6 148.48 1131.52 102.4 1075.2 102.4zM788.48 558.08l-209.92 133.12c-35.84 25.6-71.68 10.24-71.68-35.84L506.88 368.64c0-46.08 30.72-61.44 71.68-35.84l209.92 133.12C829.44 491.52 829.44 532.48 788.48 558.08z" p-id="56573" fill="#ffffff"></path></svg>