<?xml version="1.0" standalone="no"?><!DOCTYPE svg PUBLIC "-//W3C//DTD SVG 1.1//EN" "http://www.w3.org/Graphics/SVG/1.1/DTD/svg11.dtd"><svg t="1578560782929" class="icon" viewBox="0 0 1024 1024" version="1.1" xmlns="http://www.w3.org/2000/svg" p-id="11852" xmlns:xlink="http://www.w3.org/1999/xlink" width="200" height="200"><defs><style type="text/css"></style></defs><path d="M934.303 376.436c-3.652-35.55-9.118-69.582-16.407-102.099-7.298-32.515-16.716-61.989-28.263-88.425s-25.531-46.49-41.935-60.167c-13.931-11.609-29.616-17.415-47.058-17.415-3.102 0-6.255 0.183-9.467 0.55-21.264 2.432-44.964 16.104-71.098 41.02v0.004h-0.004c0-0.002 0.004-0.002 0.004-0.004-26.138 24.313-55.309 44.217-87.519 59.712-32.208 15.495-65.18 28.258-98.909 38.289-33.729 10.026-66.847 17.927-99.364 23.701-32.513 5.771-61.688 11.088-87.518 15.951-25.826 4.865-47.099 10.028-63.809 15.499-10.295 3.368-17.855 7.32-22.734 11.841H141.659c-15.797 0-29.323 5.471-40.567 16.408-11.24 10.941-16.862 24.311-16.862 40.113v188.739c0 15.807 5.622 29.176 16.862 40.112 11.244 10.938 24.77 16.409 40.567 16.409h98.86L348.53 865.457c11.405 19.005 30.41 34.215 53.219 34.215h30.41c19.014 0 38.019-11.405 49.424-26.614 11.405-15.209 11.405-34.215 3.804-53.22L409.92 644.971c17.468 2.699 35.756 5.561 54.903 8.59a1083.602 1083.602 0 0 1 108.025 22.791c35.555 9.423 68.375 20.966 98.454 34.643 30.08 13.677 53.941 30.846 71.557 51.508 18.234 20.654 35.711 32.514 52.417 35.552 3.8 0.69 7.547 1.037 11.235 1.037 12.541 0 24.444-3.991 35.716-11.975 14.59-10.34 27.808-26.137 39.654-47.405 11.85-21.268 22.186-46.028 30.993-74.296 8.812-28.267 15.503-58.498 20.057-90.709 4.558-32.204 6.838-64.414 6.838-96.628 0.001-32.208-1.817-66.092-5.466-101.643zM140.26 561.85h-0.004c-0.004 0-0.338-0.187-0.989-0.819a9.68 9.68 0 0 1-0.276-0.281 10.03 10.03 0 0 1-0.018-0.597v-188.74c0-0.244 0.009-0.441 0.018-0.595 0.076-0.08 0.165-0.171 0.272-0.276 0.575-0.561 0.904-0.773 0.904-0.786 0.147-0.038 0.638-0.121 1.493-0.121h112.586V561.93h-5.774l-1.256-0.224a20.19 20.19 0 0 0-2.945 0.224H141.659c-0.847 0.001-1.341-0.08-1.399-0.08z m295.169 280.793c-1.479 1.218-2.993 2.027-3.854 2.286h-29.131c-0.905-0.485-3.092-2.071-5.476-5.364l-91.781-211.397c12.202 2.304 25.857 4.651 40.892 7.038l88.686 205.487c0.281 0.743 0.499 1.398 0.664 1.95z m443.299-275.598c-4.111 29.099-10.211 56.716-18.119 82.087-7.636 24.517-16.567 46.024-26.551 63.942-9.69 17.393-18.119 25.576-23.465 29.367-1.786 1.266-3.159 1.907-4.081 1.907-0.392 0-0.896-0.054-1.265-0.12-0.071-0.018-7.262-2.076-21.081-17.65-22.734-26.53-53.081-48.538-90.204-65.418-32.691-14.866-68.724-27.558-107.099-37.725a1143.304 1143.304 0 0 0-113.477-23.945c-35.333-5.591-68.112-10.666-97.565-15.09-2.133-0.654-4.347-1.02-6.575-1.02l-60.25-10.701V352.318c13.036-3.749 29.092-7.424 47.896-10.968 25.469-4.794 54.725-10.126 86.961-15.851 34.379-6.103 69.841-14.557 105.4-25.126 36.348-10.813 72.363-24.75 107.036-41.429a407.748 407.748 0 0 0 101.07-68.961l0.25-0.229 0.24-0.234c24.648-23.5 37.266-25.99 39.533-26.251a29.333 29.333 0 0 1 3.257-0.196c3.805 0 7.306 0.804 12.002 4.718 9.608 8.01 18.884 21.854 26.823 40.033 10.095 23.11 18.51 49.521 25.015 78.485 6.776 30.245 11.947 62.45 15.364 95.715 3.44 33.492 5.182 65.809 5.182 96.054 0.001 29.497-2.119 59.426-6.297 88.967z" fill="#222222" p-id="11853"></path></svg>