<?xml version="1.0" encoding="utf-8"?>
<!-- Generator: Adobe Illustrator 16.0.0, SVG Export Plug-In . SVG Version: 6.00 Build 0)  -->
<!DOCTYPE svg PUBLIC "-//W3C//DTD SVG 1.1//EN" "http://www.w3.org/Graphics/SVG/1.1/DTD/svg11.dtd">
<svg version="1.1" id="图层_1" xmlns="http://www.w3.org/2000/svg" xmlns:xlink="http://www.w3.org/1999/xlink" x="0px" y="0px"
	 width="750px" height="750px" viewBox="0 0 750 750" enable-background="new 0 0 750 750" xml:space="preserve">
<g>
	<path fill="#BF5959" d="M424.002,14.421l252.903,140.273c30.113,16.717,48.771,47.76,48.771,81.051v280.541
		c0,33.317-18.657,64.339-48.771,81.031L424.002,737.589c-14.849,8.251-31.797,12.6-49.002,12.6
		c-17.128,0.019-33.976-4.328-48.955-12.626L73.089,597.317c-30.062-16.715-48.766-47.74-48.766-81.031V235.724
		c0-33.291,18.679-64.313,48.791-81.008L326.045,14.446c29.691-16.506,68.172-16.506,97.957,0V14.421z"/>
	<path fill="#FFFFFF" d="M237.417,290.615c0-68.965,61.322-125.026,136.647-125.026c75.326,0,136.67,56.062,136.67,125.026v0.303
		l-0.702,12.136c-6.85,63.753-65.622,112.566-135.875,112.611c-1.638,0-2.829-0.093-3.039-0.349l-4.349,0.537
		c-64.056,0.983-117.708,45.635-124.794,103.73c-1.801,14.801-15.357,25.926-31.488,25.926c-9.026,0-17.652-3.53-23.66-9.724
		c-5.894-5.9-8.783-14.158-7.855-22.445c6.92-57.207,44.089-107.329,98.938-134.518
		C252.193,355.445,237.417,323.603,237.417,290.615L237.417,290.615z"/>
	<path fill="#FFFFFF" d="M501.991,412.159c38.198,27.821,61.602,64.548,68.43,108.359c1.238,8.301-1.475,16.691-7.436,23.006
		c-6.273,6.502-14.946,10.148-23.987,10.073c-15.664,0-29.081-10.658-31.349-24.968c-4.677-30.155-21.72-57.042-49.26-76.913
		l-9.491-12.297c-1.271-3.117-1.931-6.452-1.94-9.82c0-14.376,9.492-21.693,29.458-28.753
		C484.2,398.109,490.28,401.945,501.991,412.159L501.991,412.159z"/>
	<path fill="#BF5959" d="M420.344-20.472"/>
	<path fill="#BF5959" d="M374.064,354.089c38.365,0,69.551-28.522,69.551-63.474c0-34.997-31.165-63.518-69.551-63.518
		c-38.388,0-69.527,28.521-69.527,63.518C304.537,325.567,335.702,354.089,374.064,354.089L374.064,354.089z"/>
</g>
</svg>
