<?xml version="1.0" standalone="no"?><!DOCTYPE svg PUBLIC "-//W3C//DTD SVG 1.1//EN" "http://www.w3.org/Graphics/SVG/1.1/DTD/svg11.dtd"><svg t="1578560719828" class="icon" viewBox="0 0 1024 1024" version="1.1" xmlns="http://www.w3.org/2000/svg" p-id="8903" xmlns:xlink="http://www.w3.org/1999/xlink" width="200" height="200"><defs><style type="text/css"></style></defs><path d="M512 85.333333c88.256 0 160 70.656 160 158.08V298.666667H768a64 64 0 0 1 64 64v512a64 64 0 0 1-64 64H256a64 64 0 0 1-64-64V362.666667a64 64 0 0 1 64-64h96v-55.253334c0-85.717333 68.949333-155.306667 154.837333-157.994666z m256 277.333334h-96v74.666666a32 32 0 0 1-28.928 31.850667L640 469.333333a32 32 0 0 1-32-32V362.666667h-192v74.666666a32 32 0 0 1-28.928 31.850667L384 469.333333a32 32 0 0 1-32-32V362.666667H256v512h512V362.666667zM512 149.333333c-53.12 0-96 42.24-96 94.08V298.666667h192v-55.253334c0-50.368-40.448-91.669333-91.477333-93.973333z" fill="#222222" p-id="8904"></path></svg>